PathFileType	4	(X/Y/Z)	OpenSim_Sub04_EMGBaseline_Magnet.trc
DataRate	CameraRate	NumFrames	NumMarkers	Units	OrigDataRate	OrigDataStartFrame	OrigNumFrames
100	100	40	8	m	100	1	7941
Frame#	Time	torso_imu_offset_imu	pelvis_imu_offset_imu	tibia_r_imu_offset_imu	femur_r_imu_offset_imu	tibia_l_imu_offset_imu	femur_l_imu_offset_imu	toes_r_imu_offset_imu	toes_l_imu_offset_imu
				X1	Y1	Z1	X2	Y2	Z2	X3	Y3	Z3	X4	Y4	Z4	X5	Y5	Z5	X6	Y6	Z6	X7	Y7	Z7	X8		Y8	Z8	

1	0	0.91062304	0.21430954	-0.20667017	-0.61988813	0.21907558	-0.65974692	-0.52166474	-0.58171149	-0.26451348	-0.77281209	-0.35527399	0.03544292	-0.67087661	0.44095186	0.18596726	-0.67704765	0.28122297	0.40175403	-0.68404685	-0.19457594	-0.34301839	-0.65198875	-0.37575421	-0.32615466
2	0.01000000	0.91369058	0.21313107	-0.20680321	-0.62379975	0.21460568	-0.65901358	-0.52182317	-0.58278720	-0.27598752	-0.77259068	-0.35313501	0.03863468	-0.67011269	0.44351761	0.18989281	-0.67722702	0.28755757	0.39614749	-0.67962723	-0.20125799	-0.34665848	-0.64720237	-0.38225667	-0.32107008
3	0.02000000	0.91381889	0.21615747	-0.21239233	-0.62403128	0.21515254	-0.65712399	-0.52139902	-0.58639900	-0.27100405	-0.77535051	-0.35615963	0.04008739	-0.66659083	0.44480496	0.19043892	-0.68077403	0.27755115	0.39680540	-0.68119896	-0.19620997	-0.34513258	-0.64053025	-0.37355934	-0.32401353
4	0.03000000	0.90798692	0.21333252	-0.21041904	-0.62835844	0.21489637	-0.65695777	-0.51920938	-0.58660108	-0.26855813	-0.77612709	-0.35626892	0.03771835	-0.66852381	0.44280201	0.18956682	-0.68463714	0.27504830	0.38974032	-0.68504362	-0.19482551	-0.34924473	-0.64493434	-0.37599717	-0.33032345
5	0.04000000	0.90814999	0.21794089	-0.21526598	-0.62647485	0.21443528	-0.65424575	-0.52009243	-0.58801480	-0.27288116	-0.77214940	-0.35138803	0.03828385	-0.66666894	0.44232028	0.19355355	-0.67994498	0.27768084	0.39637249	-0.68390417	-0.19592914	-0.34904132	-0.64282036	-0.37495995	-0.32100331
6	0.05000000	0.90679846	0.21340512	-0.21468469	-0.62105873	0.21311617	-0.65605663	-0.52131714	-0.58677837	-0.26863463	-0.77312454	-0.35489762	0.04048070	-0.66867540	0.44143434	0.19036003	-0.68520715	0.27944663	0.39362695	-0.68304919	-0.19890604	-0.35118184	-0.64504406	-0.38062403	-0.32241471
7	0.06000000	0.91129548	0.22061071	-0.21791283	-0.62432967	0.21518773	-0.65806836	-0.51639857	-0.59014457	-0.26367776	-0.77774834	-0.34782935	0.03980626	-0.66596689	0.44458103	0.18896326	-0.67939970	0.27918977	0.39300343	-0.68630033	-0.19456210	-0.35060958	-0.64465544	-0.37535388	-0.32144629
8	0.07000000	0.91256139	0.21467690	-0.22173374	-0.62545140	0.21512028	-0.65006615	-0.51942487	-0.58921583	-0.26862355	-0.77847262	-0.34835713	0.03646052	-0.66764496	0.44474402	0.19153584	-0.68319951	0.27957628	0.38971701	-0.68167546	-0.19537887	-0.34897084	-0.64541925	-0.37379078	-0.32020004
9	0.08000000	0.91008387	0.21856976	-0.22055376	-0.62719826	0.21346928	-0.65517871	-0.52731430	-0.59127123	-0.26741799	-0.77406473	-0.35311639	0.03416889	-0.67075882	0.45344358	0.19354920	-0.67588132	0.27825193	0.39809024	-0.68003272	-0.19429723	-0.35122378	-0.64740386	-0.37478348	-0.32153096
10	0.09000000	0.90739037	0.21436327	-0.21665450	-0.63426121	0.20931797	-0.65137877	-0.51783160	-0.58467164	-0.26543157	-0.77550184	-0.34860699	0.04092159	-0.66685814	0.44402239	0.19517770	-0.67830123	0.27576164	0.40211677	-0.68176439	-0.19078618	-0.35051231	-0.64670907	-0.37911619	-0.31720745
11	0.10000000	0.90460195	0.21703181	-0.21974666	-0.62903138	0.21804572	-0.65132919	-0.51519873	-0.59382465	-0.26668905	-0.77934739	-0.34930645	0.04276687	-0.67121803	0.44537484	0.19399653	-0.68320005	0.28156137	0.39526852	-0.68619592	-0.19395015	-0.34933557	-0.64395981	-0.37791525	-0.32144740
12	0.11000000	0.91201990	0.21620816	-0.22092215	-0.62866467	0.21635256	-0.65451448	-0.51779070	-0.59426647	-0.26912348	-0.77538019	-0.34889320	0.04444565	-0.66859140	0.44486867	0.19755190	-0.67950664	0.27607682	0.39250635	-0.68001033	-0.19427308	-0.35360386	-0.64353805	-0.37611204	-0.32601968
13	0.12000000	0.91150625	0.21128595	-0.21842643	-0.63207080	0.21506395	-0.65011112	-0.51890659	-0.59164042	-0.26349111	-0.77060514	-0.34987994	0.04252282	-0.66783558	0.44177965	0.18878411	-0.68325771	0.27525325	0.39122571	-0.68329223	-0.19132721	-0.35225299	-0.65012940	-0.37608744	-0.32214085
14	0.13000000	0.90711408	0.21163494	-0.21914147	-0.63009504	0.21732421	-0.65256073	-0.51788536	-0.58828979	-0.26875833	-0.77558610	-0.35336903	0.04143133	-0.66440455	0.43892893	0.18653146	-0.67834632	0.27719293	0.40034798	-0.68472579	-0.19510687	-0.34847457	-0.64890881	-0.37688177	-0.32728225
15	0.14000000	0.91261962	0.21907422	-0.22168473	-0.63265645	0.21674278	-0.65017802	-0.52160992	-0.59094469	-0.26747739	-0.77660172	-0.35079967	0.03880096	-0.66918264	0.44690014	0.19831161	-0.67693264	0.27746723	0.39382871	-0.68420711	-0.19321622	-0.34925116	-0.64654429	-0.37740242	-0.32492316
16	0.15000000	0.90779687	0.21688085	-0.22378073	-0.63450290	0.21418940	-0.64976104	-0.51869486	-0.59266719	-0.26556865	-0.77468424	-0.34858091	0.04818371	-0.66533267	0.45173668	0.19167524	-0.67705999	0.27926425	0.39810102	-0.68212404	-0.19503048	-0.35111267	-0.64467390	-0.37167649	-0.32032349
17	0.16000000	0.90901778	0.21849659	-0.22657606	-0.63386908	0.21296068	-0.64762173	-0.51712960	-0.59243567	-0.26523022	-0.77507131	-0.34741526	0.04501706	-0.66354192	0.45277319	0.19478382	-0.67683743	0.27637164	0.39696890	-0.68309098	-0.19274203	-0.35067643	-0.64591521	-0.37394884	-0.32355592
18	0.17000000	0.91055746	0.21733815	-0.22692236	-0.63573356	0.21471464	-0.64764760	-0.51780631	-0.59276412	-0.26353437	-0.77401113	-0.34907630	0.03764099	-0.66846359	0.45453175	0.20134116	-0.67720603	0.27524625	0.39893925	-0.68439943	-0.19372260	-0.34875700	-0.64923748	-0.37181519	-0.32109978
19	0.18000000	0.91111471	0.22097115	-0.22061531	-0.63960925	0.21617017	-0.64941358	-0.51894584	-0.59164866	-0.26608840	-0.77367997	-0.34624627	0.04362038	-0.66221100	0.44449290	0.19449460	-0.67916890	0.27690856	0.38964163	-0.68198767	-0.19773099	-0.34868245	-0.64386223	-0.37463255	-0.32857675
20	0.19000000	0.91496504	0.21522771	-0.22209781	-0.63221561	0.22041560	-0.65439781	-0.51445901	-0.58877686	-0.26891227	-0.77929833	-0.34529713	0.04694864	-0.66685866	0.45105425	0.19580067	-0.67968392	0.27486634	0.39964495	-0.68303032	-0.19920738	-0.34980840	-0.64357684	-0.37641312	-0.32147936
21	0.20000000	0.90840296	0.21360411	-0.22532453	-0.63634504	0.21150308	-0.64706412	-0.51377592	-0.59269673	-0.26868563	-0.77643352	-0.34713485	0.04747748	-0.66474109	0.45327011	0.19370623	-0.68383761	0.27790883	0.39636630	-0.68383955	-0.19583391	-0.35238436	-0.65019725	-0.37589799	-0.32487725
22	0.21000000	0.90250812	0.22157878	-0.22363620	-0.63069714	0.21387389	-0.64730996	-0.51394524	-0.58974175	-0.26428670	-0.77385990	-0.34809544	0.04808241	-0.66631639	0.44928780	0.18871142	-0.68038760	0.27488701	0.38910656	-0.68086823	-0.19030886	-0.34967054	-0.64858299	-0.37357552	-0.32316512
23	0.22000000	0.91177332	0.22140532	-0.22656495	-0.63222923	0.21969435	-0.64663524	-0.50992841	-0.59148831	-0.26970453	-0.77108463	-0.35387527	0.04228485	-0.66186912	0.45235010	0.19317206	-0.67957523	0.26690543	0.39567520	-0.68437074	-0.19159658	-0.35510210	-0.64446545	-0.37509846	-0.32033992
24	0.23000000	0.91213574	0.22217657	-0.22768329	-0.64038194	0.21802932	-0.64950925	-0.51736223	-0.59373532	-0.26336771	-0.77413967	-0.34950846	0.04475916	-0.66257892	0.45009419	0.19359614	-0.68282190	0.27569435	0.40034783	-0.67987243	-0.19590003	-0.35054938	-0.64552699	-0.37760497	-0.32792172
25	0.24000000	0.90703788	0.21684925	-0.22559907	-0.63098259	0.21511396	-0.64327139	-0.51237969	-0.58891400	-0.26879388	-0.77157485	-0.34245573	0.04144239	-0.66150611	0.44607067	0.19375464	-0.67941004	0.27538927	0.39533859	-0.68080193	-0.19638121	-0.35367430	-0.64632803	-0.37152422	-0.32718131
26	0.25000000	0.90508346	0.22153021	-0.22886325	-0.63310101	0.21977523	-0.64879932	-0.51384056	-0.59449916	-0.26704478	-0.77685465	-0.34542706	0.04041147	-0.66088332	0.45436510	0.18625420	-0.68338787	0.27963208	0.39668608	-0.68319917	-0.19264716	-0.35173977	-0.64379382	-0.37437295	-0.31988819
27	0.26000000	0.90996053	0.22056953	-0.22957035	-0.63415661	0.21757353	-0.64681161	-0.51748900	-0.58978503	-0.26637734	-0.77290246	-0.34452104	0.04199477	-0.66436805	0.45136728	0.19383691	-0.67873627	0.27583533	0.40181552	-0.68428886	-0.19615785	-0.34674654	-0.65265538	-0.37399908	-0.32430633
28	0.27000000	0.90342706	0.21811241	-0.22560650	-0.63213375	0.21312844	-0.64336667	-0.51419789	-0.59047753	-0.27020799	-0.77748724	-0.34300251	0.03974307	-0.66299170	0.45123308	0.19210653	-0.67867989	0.27329755	0.40115811	-0.68232177	-0.19904466	-0.35169292	-0.65069795	-0.37418424	-0.32224003
29	0.28000000	0.90769337	0.21687957	-0.22858134	-0.63521329	0.21985590	-0.64895798	-0.51438916	-0.59029685	-0.26827173	-0.77371780	-0.34593798	0.03945093	-0.66636624	0.44995189	0.19123491	-0.67708679	0.27690865	0.39408164	-0.68177132	-0.19374569	-0.35306505	-0.64293307	-0.37434662	-0.32749352
30	0.29000000	0.91297595	0.21854025	-0.22990784	-0.63620132	0.21812861	-0.65013693	-0.51911393	-0.59034466	-0.26995233	-0.77070912	-0.34912762	0.03887328	-0.66231181	0.45434962	0.19139788	-0.67931278	0.27192855	0.40158277	-0.68155188	-0.19146750	-0.34970532	-0.63950567	-0.37643811	-0.32815400
31	0.30000000	0.90937758	0.21703986	-0.22774538	-0.63408560	0.21452208	-0.64740930	-0.51225663	-0.59410903	-0.26825156	-0.77247151	-0.34682286	0.04486181	-0.66448637	0.45352431	0.18675755	-0.67837652	0.27389255	0.39987772	-0.68589178	-0.19507113	-0.34477551	-0.65078419	-0.37610156	-0.32387955
32	0.31000000	0.90692778	0.22218704	-0.23123966	-0.63424365	0.21497187	-0.64499314	-0.51002081	-0.59760318	-0.27271476	-0.77121526	-0.34719065	0.04208821	-0.66218018	0.45093386	0.19277041	-0.67761643	0.27616757	0.39857471	-0.68052793	-0.19280508	-0.34989349	-0.64805469	-0.37648166	-0.32399886
33	0.32000000	0.90968236	0.22480928	-0.23150046	-0.63461936	0.21465442	-0.64317224	-0.50672223	-0.59002368	-0.27235497	-0.77524902	-0.34984276	0.04183032	-0.66202421	0.45011659	0.18843259	-0.68122373	0.27058929	0.40035579	-0.68469525	-0.19581873	-0.35051384	-0.64561330	-0.37526263	-0.32169360
34	0.33000000	0.90382026	0.21994763	-0.22589134	-0.63668628	0.21550763	-0.64330876	-0.50945357	-0.59225469	-0.27209259	-0.77466203	-0.35033416	0.03744243	-0.66010158	0.45397246	0.19370208	-0.67853216	0.27538575	0.39462183	-0.68226017	-0.19649980	-0.34965979	-0.64836746	-0.37233990	-0.32249571
35	0.34000000	0.90634600	0.21949701	-0.23090329	-0.63636015	0.21945065	-0.64345872	-0.51135702	-0.58793511	-0.27315250	-0.77457397	-0.34722626	0.03782662	-0.65961327	0.45114217	0.19451864	-0.67952006	0.27503000	0.39205583	-0.68538821	-0.19265233	-0.35223906	-0.64345136	-0.37603989	-0.32417739
36	0.35000000	0.90679026	0.22274516	-0.22957769	-0.63672314	0.21851138	-0.64270281	-0.51124857	-0.58840368	-0.27742583	-0.77258546	-0.35150119	0.03832261	-0.65867281	0.45257890	0.18946081	-0.68084372	0.27387307	0.39650394	-0.68620993	-0.19359639	-0.34326038	-0.65258360	-0.37150104	-0.32122040
37	0.36000000	0.91010610	0.22150284	-0.22841010	-0.63556213	0.21672609	-0.64147393	-0.51102675	-0.58873980	-0.27598928	-0.77243906	-0.35108817	0.04007486	-0.66202826	0.45597372	0.18888252	-0.67915046	0.27188650	0.39565468	-0.68556008	-0.19498001	-0.34363639	-0.64839980	-0.37208550	-0.32048386
38	0.37000000	0.90545019	0.22496550	-0.23021092	-0.63242441	0.21690691	-0.64620398	-0.51164186	-0.59023905	-0.27227724	-0.77393910	-0.35055887	0.03768428	-0.65759883	0.45387815	0.19301555	-0.67777236	0.27976280	0.39689044	-0.69087695	-0.19592484	-0.34929283	-0.64404602	-0.37122033	-0.32440210
39	0.38000000	0.90679465	0.22000695	-0.22816634	-0.63695955	0.21780054	-0.64952237	-0.51551810	-0.59134687	-0.27569437	-0.77880075	-0.34644696	0.04126867	-0.65756309	0.45654401	0.19256508	-0.67366673	0.27713939	0.40064489	-0.68568524	-0.19876872	-0.34542722	-0.64411076	-0.37028067	-0.32498907
40	0.39000000	0.90469356	0.21908790	-0.23028143	-0.63633714	0.22119095	-0.65426577	-0.51455102	-0.59716490	-0.27882610	-0.77107555	-0.34493311	0.04378651	-0.65619622	0.45891169	0.19205279	-0.68151717	0.27629459	0.39778611	-0.68444048	-0.19514886	-0.34316306	-0.65254673	-0.37402763	-0.32462898
